<!-- filepath: /Users/petternikolai/Documents/spurven/src/svg/NaafLogo.svg -->
<svg
  fill="none"
  xmlns="http://www.w3.org/2000/svg"
  width="200"
  height="200"
  viewBox="0 0 45 45"
>
  <path
    d="M1 44.2H33.1C39.2 44.2 44.2 39.5 44.2 33.8V1H12.1C6 1 1 5.7 1 11.4V44.2Z"
    fill="white"
  ></path>
  <path
    d="M32.7 45.3H1C0.4 45.3 0 44.9 0 44.3V11.9C0 5.4 5.7 0 12.6 0H44.3C44.9 0 45.3 0.4 45.3 1V33.3C45.3 39.9 39.6 45.3 32.7 45.3ZM2 43.3H32.7C38.5 43.3 43.3 38.8 43.3 33.4V2H12.6C6.8 2 2 6.5 2 11.9V43.3Z"
    fill="#0060A9"
  ></path>
  <path
    d="M14.3 4.70001C9 4.70001 4.7 8.80001 4.7 13.8V40.6H31C36.3 40.6 40.6 36.5 40.6 31.5V4.70001H14.3ZM20 36.3C19.3 36.3 18.7 35.7 18.7 35C18.7 27.5 18.2 22.5 11 22.5C10.3 22.5 9.7 21.9 9.7 21.2C9.7 20.5 10.3 19.9 11 19.9C21.4 19.9 21.4 29 21.4 35C21.3 35.7 20.7 36.3 20 36.3ZM18 15.5C18 13 20.1 10.9 22.6 10.9C25.1 10.9 27.2 13 27.2 15.5C27.2 18 25.1 20.1 22.6 20.1C20.1 20.1 18 18.1 18 15.5ZM34.4 22.5C27.2 22.5 26.7 27.4 26.7 35C26.7 35.7 26.1 36.3 25.4 36.3C24.7 36.3 24.1 35.7 24.1 35C24.1 29 24.1 19.9 34.5 19.9C35.2 19.9 35.8 20.5 35.8 21.2C35.7 21.9 35.1 22.5 34.4 22.5Z"
    fill="#0060A9"
  ></path>
</svg>